# xmcd
#
# Track frame offsets:
#	150
#	11018
#	23635
#	46300
#	67393
#	85215
#	103835
#	123585
#	144798
#	160068
#	186008
#	203003
#	210940
#
# Disc length: 3140 seconds
#
# Revision: 0
# Processed by: cddbd v1.5.2PL0 Copyright (c) Steve Scherf et al.
# Submitted via: audiograbber 1.83.01
#
DISCID=ab0c420d
DTITLE=Queen - The Miracle [CD-R]
DYEAR=1989
DGENRE=Rock
TTITLE0=Party
TTITLE1=Khashoggi's Ship
TTITLE2=The Miracle
TTITLE3=I Want It All
TTITLE4=The Invisible Man
TTITLE5=Breakthru
TTITLE6=Rain Must Fall
TTITLE7=Scandal
TTITLE8=My Baby Does Me
TTITLE9=Was It All Worth It
TTITLE10=Hang On In There [extra track]
TTITLE11=Chinese Torture [extra track]
TTITLE12=The Invisible Man [12" version] [extra track]
EXTD=
EXTT0=
EXTT1=
EXTT2=
EXTT3=
EXTT4=
EXTT5=
EXTT6=
EXTT7=
EXTT8=
EXTT9=
EXTT10=
EXTT11=
EXTT12=
PLAYORDER=
